# xmcd
#
# Track frame offsets: 
#        150
#        21452
#        41169
#        57851
#        79953
#        100244
#        122026
#        142952
#        167261
#        184522
#
# Disc length: 2767 seconds
#
# Revision: 1
# Processed by: cddbd v1.5.2PL0 Copyright (c) Steve Scherf et al.
# Submitted via: ExactAudioCopyFreeDBPlugin 1.0
#
DISCID=7f0acd0a
DTITLE=Greg Lowe - The Yellow Pelican
DYEAR=2004
DGENRE=Jazz
TTITLE0=Cookin' with Cush (Soul Food Secrets)
TTITLE1=The Yellow Pelican
TTITLE2=Green Gates
TTITLE3=No Blues Is Good News
TTITLE4=Salsa 82
TTITLE5=Songo
TTITLE6=Steve's Groove
TTITLE7=Toad Hall
TTITLE8=Mambo Jambo
TTITLE9=Grinnage Village
EXTD=YEAR: 2004
EXTT0=
EXTT1=
EXTT2=
EXTT3=
EXTT4=
EXTT5=
EXTT6=
EXTT7=
EXTT8=
EXTT9=
PLAYORDER=
